<svg width="561" height="744" viewBox="0 0 561 744" fill="none" xmlns="http://www.w3.org/2000/svg">
<rect x="156.691" y="6.9408" width="12" height="85" rx="6" transform="rotate(-33 156.691 6.9408)" fill="#3FBB7D"/>
<rect x="397.342" y="0.405151" width="12" height="85" rx="6" transform="rotate(33 397.342 0.405151)" fill="#3FBB7D"/>
<path d="M464.612 193.133H97.6122C97.6122 172.133 131.612 45.1334 277.612 45.1334C420.612 45.1334 464.612 154.133 464.612 193.133Z" fill="#3FBB7D"/>
<circle cx="203.112" cy="121.133" r="20.5" fill="#3B3233"/>
<circle cx="361.112" cy="121.133" r="20.5" fill="#3B3233"/>
<rect x="0.265167" y="207.18" width="83" height="249" rx="41.5" fill="#3FBB7D"/>
<rect width="83" height="249" rx="41.5" transform="matrix(1 0 0 -1 477.959 456.18)" fill="#3FBB7D"/>
<path d="M163.971 582.405H246.971V701.928C246.971 724.848 228.391 743.428 205.471 743.428C182.551 743.428 163.971 724.848 163.971 701.928V582.405Z" fill="#3FBB7D"/>
<path d="M315.253 582.405H398.253V701.928C398.253 724.848 379.673 743.428 356.753 743.428C333.833 743.428 315.253 724.848 315.253 701.928V582.405Z" fill="#3FBB7D"/>
<path d="M97.6122 204.405H464.612V542.405C464.612 558.974 451.181 572.405 434.612 572.405H127.612C111.044 572.405 97.6122 558.974 97.6122 542.405V204.405Z" fill="#3FBB7D"/>
</svg>
