<svg width="621" height="744" viewBox="0 0 621 744" fill="none" xmlns="http://www.w3.org/2000/svg">
<rect width="12" height="85" rx="6" transform="matrix(-0.838671 -0.544639 -0.544639 0.838671 463.841 7.25806)" fill="#3FBB7D"/>
<rect width="12" height="85" rx="6" transform="matrix(-0.838671 0.544639 0.544639 0.838671 223.189 0.722412)" fill="#3FBB7D"/>
<path d="M155.919 193.451H522.919C522.919 172.451 488.919 45.4507 342.919 45.4507C199.919 45.4507 155.919 154.451 155.919 193.451Z" fill="#3FBB7D"/>
<circle r="20.5" transform="matrix(-1 0 0 1 417.419 121.451)" fill="#3B3233"/>
<circle r="20.5" transform="matrix(-1 0 0 1 259.419 121.451)" fill="#3B3233"/>
<rect width="83" height="249" rx="41.5" transform="matrix(-1 0 0 1 620.266 207.498)" fill="#3FBB7D"/>
<rect x="151.919" y="262.74" width="83" height="249" rx="41.5" transform="rotate(163.165 151.919 262.74)" fill="#3FBB7D"/>
<path d="M456.561 582.723H373.561V702.245C373.561 725.165 392.141 743.745 415.061 743.745C437.98 743.745 456.561 725.165 456.561 702.245V582.723Z" fill="#3FBB7D"/>
<path d="M305.278 582.723H222.278V702.245C222.278 725.165 240.858 743.745 263.778 743.745C286.698 743.745 305.278 725.165 305.278 702.245V582.723Z" fill="#3FBB7D"/>
<path fill-rule="evenodd" clip-rule="evenodd" d="M155.919 204.722H522.919L522.919 409.949H464.353L461.721 382.273H445.113L442.48 409.949H388.552C391.269 399.879 381.294 389.579 370.374 393.775C363.027 396.598 354.82 392.646 352.446 385.141C348.422 372.418 330.417 372.418 326.392 385.141C324.018 392.646 315.812 396.598 308.464 393.775C297.544 389.579 287.57 399.879 290.286 409.949H250.069V375.48C255.813 370.125 259.406 362.49 259.406 354.017C259.406 343.325 253.686 333.969 245.139 328.842V355.291L230.069 365.699L214.998 355.291V328.842C206.451 333.969 200.732 343.325 200.732 354.017C200.732 362.49 204.324 370.125 210.069 375.48V409.949H155.919V204.722ZM155.919 471.589V542.722C155.919 559.291 169.351 572.722 185.919 572.722H492.919C509.488 572.722 522.919 559.291 522.919 542.722L522.919 471.589H372.735C372.668 472.542 372.701 473.517 372.842 474.502C374.737 487.712 358.515 495.524 349.368 485.807C343.974 480.075 334.865 480.075 329.47 485.807C320.324 495.524 304.101 487.712 305.996 474.502C306.137 473.517 306.17 472.542 306.103 471.589H155.919ZM360.128 409.949H318.71C324.341 405.312 331.555 402.527 339.419 402.527C347.283 402.527 354.497 405.312 360.128 409.949ZM200.732 513.347C200.732 504.149 204.964 495.94 211.588 490.561H248.549C255.173 495.94 259.406 504.149 259.406 513.347C259.406 524.039 253.686 533.395 245.139 538.522V512.073L230.069 501.665L214.998 512.073V538.522C206.451 533.395 200.732 524.039 200.732 513.347ZM397.652 338.016H421.355V389.216H397.652V338.016ZM427.342 347.28H475.65C492.218 347.28 505.65 360.711 505.65 377.28V395.992H493.021V391.298C493.021 383.014 486.305 376.298 478.021 376.298H427.342V347.28ZM471.017 490.561H439.244L437.528 519.229H472.737L471.017 490.561Z" fill="#3FBB7D"/>
<path fill-rule="evenodd" clip-rule="evenodd" d="M292.954 397.919H275.498V492.466H406.709V397.919H385.884C389.377 402.227 390.364 408.566 386.619 414.145C382.231 420.679 384.258 429.56 391.046 433.544C402.555 440.299 398.549 457.853 385.249 458.945C377.404 459.589 371.725 466.711 372.842 474.502C374.737 487.712 358.515 495.524 349.368 485.806C343.974 480.075 334.865 480.075 329.47 485.806C320.324 495.524 304.101 487.712 305.996 474.502C307.114 466.711 301.434 459.589 293.59 458.945C280.29 457.853 276.283 440.299 287.792 433.544C294.58 429.56 296.607 420.679 292.22 414.145C288.474 408.566 289.461 402.227 292.954 397.919ZM362.016 435.123C362.016 447.602 351.899 457.719 339.419 457.719C326.94 457.719 316.823 447.602 316.823 435.123C316.823 422.643 326.94 412.526 339.419 412.526C351.899 412.526 362.016 422.643 362.016 435.123ZM372.016 435.123C372.016 453.125 357.422 467.719 339.419 467.719C321.417 467.719 306.823 453.125 306.823 435.123C306.823 417.12 321.417 402.526 339.419 402.526C357.422 402.526 372.016 417.12 372.016 435.123ZM339.419 443.543C344.07 443.543 347.84 439.773 347.84 435.123C347.84 430.472 344.07 426.702 339.419 426.702C334.769 426.702 330.999 430.472 330.999 435.123C330.999 439.773 334.769 443.543 339.419 443.543ZM339.419 453.543C349.593 453.543 357.84 445.296 357.84 435.123C357.84 424.949 349.593 416.702 339.419 416.702C329.246 416.702 320.999 424.949 320.999 435.123C320.999 445.296 329.246 453.543 339.419 453.543Z" fill="#3FBB7D"/>
</svg>
