<svg width="835" height="529" viewBox="0 0 835 529" fill="none" xmlns="http://www.w3.org/2000/svg">
<rect x="0.505249" y="54.9006" width="834.357" height="473.458" fill="white"/>
<path d="M0.505249 20.3516C0.505249 9.30589 9.45955 0.351562 20.5052 0.351562H814.862C825.908 0.351562 834.862 9.30587 834.862 20.3516V54.9007H0.505249V20.3516Z" fill="#C4C4C4"/>
<ellipse cx="739.241" cy="27.6261" rx="9.22962" ry="8.74185" fill="#F3EDED"/>
<ellipse cx="768.038" cy="27.6261" rx="9.22962" ry="8.74185" fill="#F3EDED"/>
<ellipse cx="796.834" cy="27.6261" rx="9.22962" ry="8.74185" fill="#F3EDED"/>
<rect x="181.574" y="90.188" width="6.11315" height="43.3015" rx="3.05657" transform="rotate(-33 181.574 90.188)" fill="#3FBB7D"/>
<rect x="304.169" y="86.8586" width="6.11315" height="43.3015" rx="3.05657" transform="rotate(33 304.169 86.8586)" fill="#3FBB7D"/>
<path d="M338.438 185.04H151.477C151.477 174.342 168.798 109.645 243.175 109.645C316.023 109.645 338.438 165.172 338.438 185.04Z" fill="#3FBB7D"/>
<circle cx="205.222" cy="148.361" r="10.4433" fill="#3B3233"/>
<circle cx="285.712" cy="148.361" r="10.4433" fill="#3B3233"/>
<rect x="101.886" y="192.196" width="42.2826" height="126.848" rx="21.1413" fill="#3FBB7D"/>
<rect width="42.2826" height="126.848" rx="21.1413" transform="matrix(0.957141 0.289622 0.289622 -0.957141 340.476 220.338)" fill="#3FBB7D"/>
<path d="M185.282 383.346H227.565V444.235C227.565 455.911 218.1 465.376 206.424 465.376V465.376C194.748 465.376 185.282 455.911 185.282 444.235V383.346Z" fill="#3FBB7D"/>
<path d="M262.35 383.346H304.633V444.235C304.633 455.911 295.167 465.376 283.491 465.376V465.376C271.815 465.376 262.35 455.911 262.35 444.235V383.346Z" fill="#3FBB7D"/>
<path d="M338.438 190.782H151.477V348.252C151.477 364.821 164.909 378.252 181.477 378.252H308.438C325.006 378.252 338.438 364.821 338.438 348.252V190.782Z" fill="#3FBB7D"/>
<line x1="11.5" y1="-11.5" x2="258.452" y2="-11.5" transform="matrix(0.277552 -0.960711 0.911069 0.412255 526.706 472.701)" stroke="#3B3233" stroke-width="23" stroke-linecap="round"/>
<line x1="11.5" y1="-11.5" x2="258.452" y2="-11.5" transform="matrix(-0.277552 -0.960711 -0.911069 0.412255 739.067 472.701)" stroke="#3B3233" stroke-width="23" stroke-linecap="round"/>
<line x1="621.203" y1="228.409" x2="621.203" y2="138.004" stroke="#3B3233" stroke-width="23" stroke-linecap="round"/>
<rect x="480.669" y="150.861" width="304.436" height="198.839" rx="7.5" fill="#E0E0E0" stroke="#A6A6A6" stroke-width="5"/>
<path d="M503.18 282.469L531.744 245.27L550.343 265.862L577.577 219.364L620.754 273.833L657.953 196.115L699.801 256.563L766.892 166.223" stroke="#3FBB7D" stroke-width="5"/>
</svg>
