<svg width="287" height="422" viewBox="0 0 287 422" fill="none" xmlns="http://www.w3.org/2000/svg">
<rect x="80.1418" y="45.9067" width="6.11315" height="43.3015" rx="3.05657" transform="rotate(-33 80.1418 45.9067)" fill="#3FBB7D"/>
<rect x="202.737" y="42.5774" width="6.11315" height="43.3015" rx="3.05657" transform="rotate(33 202.737 42.5774)" fill="#3FBB7D"/>
<path fill-rule="evenodd" clip-rule="evenodd" d="M237.006 140.759H50.0454C50.0454 130.061 67.366 65.3633 141.743 65.3633C214.591 65.3633 237.006 120.891 237.006 140.759ZM114.233 104.08C114.233 109.847 109.558 114.523 103.79 114.523C98.0224 114.523 93.3468 109.847 93.3468 104.08C93.3468 98.3121 98.0224 93.6365 103.79 93.6365C109.558 93.6365 114.233 98.3121 114.233 104.08ZM184.28 114.523C190.048 114.523 194.723 109.847 194.723 104.08C194.723 98.3121 190.048 93.6365 184.28 93.6365C178.512 93.6365 173.837 98.3121 173.837 104.08C173.837 109.847 178.512 114.523 184.28 114.523Z" fill="#3FBB7D"/>
<path d="M217.529 109.946C217.176 107.705 216.727 101.422 216.727 101.422H223.633C223.633 101.422 225.443 103.551 226.549 104.64C227.615 105.688 227.817 106.598 228.672 107.823C229.801 109.444 229.999 111.345 231.148 112.952C233.801 116.666 233.447 115.782 233.447 118.081C233.447 120.38 237.338 121.618 237.338 121.618L241.759 124.802L249.895 128.693H242.82L246.535 129.931L242.178 130.636L245.117 132.851L239.963 131.019L241.411 132.553L239.963 133.191L243.371 133.83L241.759 134.352L243.705 135.59C243.705 135.59 238.892 135.16 235.923 134.352C232.99 133.555 231.241 133.147 228.672 131.523C227.176 130.577 226.459 129.866 225.134 128.693C223.525 127.268 221.243 124.802 221.243 124.802C220.595 123.033 218.944 118.081 218.944 118.081C218.944 118.081 217.883 112.186 217.529 109.946Z" fill="#322E2E"/>
<rect x="0.453979" y="147.915" width="42.2826" height="126.848" rx="21.1413" fill="#3FBB7D"/>
<rect width="42.2826" height="126.848" rx="21.1413" transform="matrix(-1 0 0 1 286.599 147.917)" fill="#3FBB7D"/>
<path d="M83.8503 339.065H126.133V399.954C126.133 411.63 116.668 421.095 104.992 421.095C93.3156 421.095 83.8503 411.63 83.8503 399.954V339.065Z" fill="#3FBB7D"/>
<path d="M160.918 339.065H203.201V399.954C203.201 411.63 193.735 421.095 182.059 421.095C170.383 421.095 160.918 411.63 160.918 399.954V339.065Z" fill="#3FBB7D"/>
<path d="M237.006 146.501H50.0454V303.971C50.0454 320.539 63.4768 333.971 80.0454 333.971H207.006C223.574 333.971 237.006 320.539 237.006 303.971V146.501Z" fill="#3FBB7D"/>
<path d="M188.532 74.6138H97.5345C103.757 61.9928 115.034 32.9739 142 32.9739C153.922 32.9739 175.7 39.907 188.532 74.6138Z" fill="#191A19"/>
<path d="M130.831 1.41675L50.0454 36.4785L156.738 68.0917L237.006 30.156L130.831 1.41675Z" fill="#212121" stroke="black"/>
<path d="M132.488 3.87622L62.2524 34.479L156.067 62.0717L224.798 28.9606L132.488 3.87622Z" fill="#191A19"/>
<path d="M132.488 3.87622L62.2524 34.479L156.067 62.0717L224.798 28.9606L132.488 3.87622Z" stroke="#191A19" stroke-width="5"/>
<path d="M132.488 3.87622L62.2524 34.479L156.067 62.0717L224.798 28.9606L132.488 3.87622Z" stroke="black" stroke-opacity="0.2" stroke-width="5"/>
<ellipse cx="164.147" cy="34.7541" rx="4.63017" ry="4.18452" fill="black"/>
<path d="M166.462 36.1433C166.462 36.1433 170.152 39.6341 172.944 41.2366C177.21 43.685 180.133 44.1177 184.983 44.9407C191.222 45.9995 195.297 42.6298 201.188 44.9407C211.149 48.8473 213.162 56.6896 216.931 66.7026C220.504 76.1944 220.172 94.0208 220.172 94.0208" stroke="black" stroke-width="4"/>
<ellipse cx="220.18" cy="90.2152" rx="8.33436" ry="7.99279" fill="#1A1919"/>
<rect x="214.547" y="96.2643" width="11.2672" height="1.79373" rx="0.896865" fill="#191919" stroke="black" stroke-width="0.3"/>
<rect x="214.547" y="98.358" width="11.2672" height="1.79373" rx="0.896865" fill="#191919" stroke="black" stroke-width="0.3"/>
<rect x="214.547" y="100.452" width="11.2672" height="1.79373" rx="0.896865" fill="#191919" stroke="black" stroke-width="0.3"/>
</svg>
