<svg width="576" height="387" viewBox="0 0 576 387" fill="none" xmlns="http://www.w3.org/2000/svg">
<rect x="80.5739" y="4.18823" width="6.11315" height="43.3015" rx="3.05657" transform="rotate(-33 80.5739 4.18823)" fill="#3FBB7D"/>
<rect x="203.169" y="0.858887" width="6.11315" height="43.3015" rx="3.05657" transform="rotate(33 203.169 0.858887)" fill="#3FBB7D"/>
<path d="M237.438 99.0402H50.4774C50.4774 88.3422 67.798 23.6448 142.175 23.6448C215.023 23.6448 237.438 79.1725 237.438 99.0402Z" fill="#3FBB7D"/>
<circle cx="104.222" cy="62.3613" r="10.4433" fill="#4F5B62"/>
<circle cx="184.712" cy="62.3613" r="10.4433" fill="#4F5B62"/>
<rect x="0.885986" y="106.196" width="42.2826" height="126.848" rx="21.1413" fill="#3FBB7D"/>
<rect width="42.2826" height="126.848" rx="21.1413" transform="matrix(-0.959455 0.281862 0.281862 0.959455 278.006 98.8462)" fill="#3FBB7D"/>
<path d="M84.2823 297.347H126.565V358.235C126.565 369.911 117.1 379.376 105.424 379.376V379.376C93.7476 379.376 84.2823 369.911 84.2823 358.235V297.347Z" fill="#3FBB7D"/>
<path d="M161.35 297.347H203.633V358.235C203.633 369.911 194.167 379.376 182.491 379.376V379.376C170.815 379.376 161.35 369.911 161.35 358.235V297.347Z" fill="#3FBB7D"/>
<path d="M237.438 104.782H50.4774V262.252C50.4774 278.821 63.9088 292.252 80.4774 292.252H207.438C224.006 292.252 237.438 278.821 237.438 262.252V104.782Z" fill="#3FBB7D"/>
<line x1="11.5" y1="-11.5" x2="252.256" y2="-11.5" transform="matrix(0.182096 -0.983281 0.816962 0.576692 408.282 386.701)" stroke="#4F5B62" stroke-width="23" stroke-linecap="round"/>
<line x1="11.5" y1="-11.5" x2="252.256" y2="-11.5" transform="matrix(-0.182096 -0.983281 -0.816962 0.576692 544.41 386.701)" stroke="#4F5B62" stroke-width="23" stroke-linecap="round"/>
<line x1="464.728" y1="142.409" x2="464.728" y2="52.0039" stroke="#4F5B62" stroke-width="23" stroke-linecap="round"/>
<rect x="379.669" y="64.8613" width="193.355" height="198.839" rx="7.5" fill="white" stroke="#A6A6A6" stroke-width="5"/>
<path d="M391.706 213.452L410.016 176.253L421.938 196.845L439.396 150.347L467.073 204.817L490.919 127.098L517.744 187.546L560.751 97.2065" stroke="#3FBB7D" stroke-width="5"/>
<path d="M415.346 135.31L293.76 214.412C291.358 215.974 288.137 215.203 286.704 212.721L284.019 208.073C282.585 205.592 283.526 202.416 286.08 201.116L415.346 135.31Z" fill="#4F5B62"/>
</svg>
