<svg width="287" height="380" viewBox="0 0 287 380" fill="none" xmlns="http://www.w3.org/2000/svg">
<rect x="79.9268" y="3.94678" width="6.11315" height="43.3015" rx="3.05657" transform="rotate(-33 79.9268 3.94678)" fill="#3FBB7D"/>
<rect x="202.522" y="0.617432" width="6.11315" height="43.3015" rx="3.05657" transform="rotate(33 202.522 0.617432)" fill="#3FBB7D"/>
<path d="M236.791 98.7988H49.8304C49.8304 88.1008 67.1509 23.4033 141.528 23.4033C214.376 23.4033 236.791 78.9311 236.791 98.7988Z" fill="#3FBB7D"/>
<circle cx="103.575" cy="62.1198" r="10.4433" fill="#4F5B62"/>
<circle cx="184.065" cy="62.1198" r="10.4433" fill="#4F5B62"/>
<rect x="0.238953" y="105.955" width="42.2826" height="126.848" rx="21.1413" fill="#3FBB7D"/>
<rect width="42.2826" height="126.848" rx="21.1413" transform="matrix(-1 0 0 1 286.384 105.957)" fill="#3FBB7D"/>
<path d="M83.6353 297.105H125.918V357.994C125.918 369.67 116.453 379.135 104.777 379.135V379.135C93.1006 379.135 83.6353 369.67 83.6353 357.994V297.105Z" fill="#3FBB7D"/>
<path d="M160.703 297.105H202.986V357.994C202.986 369.67 193.52 379.135 181.844 379.135V379.135C170.168 379.135 160.703 369.67 160.703 357.994V297.105Z" fill="#3FBB7D"/>
<path d="M236.791 104.541H49.8304V262.011C49.8304 278.579 63.2618 292.011 79.8304 292.011H206.791C223.359 292.011 236.791 278.579 236.791 262.011V104.541Z" fill="#3FBB7D"/>
</svg>
