<svg width="287" height="422" viewBox="0 0 287 422" fill="none" xmlns="http://www.w3.org/2000/svg">
<rect x="79.8276" y="45.9302" width="6.11315" height="43.3015" rx="3.05657" transform="rotate(-33 79.8276 45.9302)" fill="#3FBB7D"/>
<rect x="202.422" y="42.6008" width="6.11315" height="43.3015" rx="3.05657" transform="rotate(33 202.422 42.6008)" fill="#3FBB7D"/>
<path d="M236.692 140.782H49.7312C49.7312 130.084 67.0518 65.3867 141.428 65.3867C214.277 65.3867 236.692 120.914 236.692 140.782Z" fill="#3FBB7D"/>
<circle cx="103.476" cy="104.103" r="10.4433" fill="#4F5B62"/>
<circle cx="183.966" cy="104.103" r="10.4433" fill="#4F5B62"/>
<path d="M217.215 109.969C216.861 107.729 216.413 101.445 216.413 101.445H223.318C223.318 101.445 225.128 103.575 226.235 104.663C227.3 105.711 227.503 106.621 228.357 107.847C229.487 109.467 229.685 111.368 230.833 112.976C233.486 116.69 233.133 115.805 233.133 118.105C233.133 120.404 237.024 121.642 237.024 121.642L241.445 124.825L249.581 128.716H242.506L246.22 129.954L241.864 130.659L244.803 132.874L239.649 131.042L241.097 132.576L239.649 133.215L243.057 133.854L241.445 134.376L243.391 135.614C243.391 135.614 238.578 135.184 235.609 134.376C232.675 133.578 230.927 133.17 228.357 131.546C226.862 130.601 226.145 129.889 224.82 128.716C223.211 127.292 220.929 124.825 220.929 124.825C220.281 123.057 218.63 118.105 218.63 118.105C218.63 118.105 217.569 112.209 217.215 109.969Z" fill="#322E2E"/>
<rect x="0.139771" y="147.938" width="42.2826" height="126.848" rx="21.1413" fill="#3FBB7D"/>
<rect width="42.2826" height="126.848" rx="21.1413" transform="matrix(-1 0 0 1 286.284 147.941)" fill="#3FBB7D"/>
<path d="M83.5361 339.089H125.819V399.977C125.819 411.653 116.353 421.118 104.677 421.118V421.118C93.0014 421.118 83.5361 411.653 83.5361 399.977V339.089Z" fill="#3FBB7D"/>
<path d="M160.604 339.089H202.886V399.977C202.886 411.653 193.421 421.118 181.745 421.118V421.118C170.069 421.118 160.604 411.653 160.604 399.977V339.089Z" fill="#3FBB7D"/>
<path d="M236.692 146.524H49.7312V303.994C49.7312 320.563 63.1627 333.994 79.7312 333.994H206.692C223.26 333.994 236.692 320.563 236.692 303.994V146.524Z" fill="#3FBB7D"/>
<path d="M188.218 74.6372H97.2203C103.442 62.0163 114.72 32.9973 141.686 32.9973C153.608 32.9973 175.385 39.9304 188.218 74.6372Z" fill="#191A19"/>
<path d="M130.517 1.44019L49.7312 36.502L156.424 68.1151L236.692 30.1795L130.517 1.44019Z" fill="#212121" stroke="black"/>
<path d="M132.174 3.89966L61.9382 34.5024L155.753 62.0952L224.484 28.984L132.174 3.89966Z" fill="#191A19"/>
<path d="M132.174 3.89966L61.9382 34.5024L155.753 62.0952L224.484 28.984L132.174 3.89966Z" stroke="#191A19" stroke-width="5"/>
<path d="M132.174 3.89966L61.9382 34.5024L155.753 62.0952L224.484 28.984L132.174 3.89966Z" stroke="black" stroke-opacity="0.2" stroke-width="5"/>
<ellipse cx="163.832" cy="34.7775" rx="4.63017" ry="4.18452" fill="black"/>
<path d="M166.148 36.1667C166.148 36.1667 169.838 39.6575 172.63 41.26C176.896 43.7084 179.819 44.1412 184.668 44.9641C190.908 46.0229 194.982 42.6532 200.874 44.9641C210.834 48.8707 212.847 56.7131 216.617 66.726C220.19 76.2178 219.858 94.0442 219.858 94.0442" stroke="black" stroke-width="4"/>
<ellipse cx="219.866" cy="90.2386" rx="8.33436" ry="7.99279" fill="#1A1919"/>
<rect x="214.233" y="96.2877" width="11.2672" height="1.79373" rx="0.896865" fill="#191919" stroke="black" stroke-width="0.3"/>
<rect x="214.233" y="98.3814" width="11.2672" height="1.79373" rx="0.896865" fill="#191919" stroke="black" stroke-width="0.3"/>
<rect x="214.233" y="100.475" width="11.2672" height="1.79373" rx="0.896865" fill="#191919" stroke="black" stroke-width="0.3"/>
</svg>
