<svg width="621" height="744" viewBox="0 0 621 744" fill="none" xmlns="http://www.w3.org/2000/svg">
<rect x="156.786" y="7.25806" width="12" height="85" rx="6" transform="rotate(-33 156.786 7.25806)" fill="#3FBB7D"/>
<rect x="397.438" y="0.722412" width="12" height="85" rx="6" transform="rotate(33 397.438 0.722412)" fill="#3FBB7D"/>
<path d="M464.708 193.451H97.7078C97.7078 172.451 131.708 45.4507 277.708 45.4507C420.708 45.4507 464.708 154.451 464.708 193.451Z" fill="#3FBB7D"/>
<circle cx="203.208" cy="121.451" r="20.5" fill="#3B3233"/>
<circle cx="361.208" cy="121.451" r="20.5" fill="#3B3233"/>
<rect x="0.360596" y="207.498" width="83" height="249" rx="41.5" fill="#3FBB7D"/>
<rect width="83" height="249" rx="41.5" transform="matrix(0.957141 0.289622 0.289622 -0.957141 468.708 262.74)" fill="#3FBB7D"/>
<path d="M164.067 582.723H247.067V702.245C247.067 725.165 228.486 743.745 205.567 743.745C182.647 743.745 164.067 725.165 164.067 702.245V582.723Z" fill="#3FBB7D"/>
<path d="M315.349 582.723H398.349V702.245C398.349 725.165 379.769 743.745 356.849 743.745C333.929 743.745 315.349 725.165 315.349 702.245V582.723Z" fill="#3FBB7D"/>
<path fill-rule="evenodd" clip-rule="evenodd" d="M97.7079 204.722H464.708L464.708 409.949H406.142L403.509 382.273H386.902L384.269 409.949H330.341C333.057 399.879 323.083 389.579 312.163 393.775C304.816 396.598 296.609 392.646 294.235 385.141C290.21 372.418 272.205 372.418 268.181 385.141C265.807 392.646 257.6 396.598 250.253 393.775C239.333 389.579 229.358 399.879 232.075 409.949H191.857V375.48C197.602 370.125 201.194 362.49 201.194 354.017C201.194 343.325 195.474 333.969 186.928 328.842V355.291L171.857 365.699L156.787 355.291V328.842C148.24 333.969 142.52 343.325 142.52 354.017C142.52 362.49 146.113 370.125 151.857 375.48V409.949H97.7079V204.722ZM97.7079 471.589V542.722C97.7079 559.291 111.139 572.722 127.708 572.722H434.708C451.276 572.722 464.708 559.291 464.708 542.722L464.708 471.589H314.524C314.457 472.542 314.49 473.517 314.631 474.502C316.526 487.712 300.304 495.524 291.157 485.807C285.762 480.075 276.653 480.075 271.259 485.807C262.112 495.524 245.89 487.712 247.785 474.502C247.926 473.517 247.959 472.542 247.892 471.589H97.7079ZM301.917 409.949H260.499C266.13 405.312 273.344 402.527 281.208 402.527C289.072 402.527 296.286 405.312 301.917 409.949ZM142.52 513.347C142.52 504.149 146.753 495.94 153.377 490.561H190.338C196.962 495.94 201.194 504.149 201.194 513.347C201.194 524.039 195.474 533.395 186.928 538.522V512.073L171.857 501.665L156.787 512.073V538.522C148.24 533.395 142.52 524.039 142.52 513.347ZM339.441 338.016H363.144V389.216H339.441V338.016ZM369.13 347.28H417.438C434.007 347.28 447.438 360.711 447.438 377.28V395.992H434.809V391.298C434.809 383.014 428.094 376.298 419.809 376.298H369.13V347.28ZM412.806 490.561H381.033L379.317 519.229H414.525L412.806 490.561Z" fill="#3FBB7D"/>
<path fill-rule="evenodd" clip-rule="evenodd" d="M327.673 397.919H345.129V492.466H213.918V397.919H234.743C231.25 402.227 230.263 408.566 234.009 414.145C238.396 420.679 236.369 429.56 229.581 433.544C218.072 440.299 222.078 457.853 235.378 458.945C243.223 459.589 248.902 466.711 247.785 474.502C245.89 487.712 262.112 495.524 271.259 485.806C276.653 480.075 285.762 480.075 291.157 485.806C300.304 495.524 316.526 487.712 314.631 474.502C313.513 466.711 319.193 459.589 327.037 458.945C340.338 457.853 344.344 440.299 332.835 433.544C326.047 429.56 324.02 420.679 328.407 414.145C332.153 408.566 331.166 402.227 327.673 397.919ZM258.612 435.123C258.612 447.602 268.728 457.719 281.208 457.719C293.688 457.719 303.804 447.602 303.804 435.123C303.804 422.643 293.688 412.526 281.208 412.526C268.728 412.526 258.612 422.643 258.612 435.123ZM248.612 435.123C248.612 453.125 263.205 467.719 281.208 467.719C299.21 467.719 313.804 453.125 313.804 435.123C313.804 417.12 299.21 402.526 281.208 402.526C263.205 402.526 248.612 417.12 248.612 435.123ZM281.208 443.543C276.557 443.543 272.787 439.773 272.787 435.123C272.787 430.472 276.557 426.702 281.208 426.702C285.858 426.702 289.628 430.472 289.628 435.123C289.628 439.773 285.858 443.543 281.208 443.543ZM281.208 453.543C271.034 453.543 262.787 445.296 262.787 435.123C262.787 424.949 271.034 416.702 281.208 416.702C291.381 416.702 299.628 424.949 299.628 435.123C299.628 445.296 291.381 453.543 281.208 453.543Z" fill="#3FBB7D"/>
</svg>
