<svg width="621" height="744" viewBox="0 0 621 744" fill="none" xmlns="http://www.w3.org/2000/svg">
<rect width="12" height="85" rx="6" transform="matrix(-0.838671 -0.544639 -0.544639 0.838671 463.841 7.25806)" fill="#3FBB7D"/>
<rect width="12" height="85" rx="6" transform="matrix(-0.838671 0.544639 0.544639 0.838671 223.189 0.722412)" fill="#3FBB7D"/>
<path d="M155.919 193.451H522.919C522.919 172.451 488.919 45.4507 342.919 45.4507C199.919 45.4507 155.919 154.451 155.919 193.451Z" fill="#3FBB7D"/>
<circle r="20.5" transform="matrix(-1 0 0 1 417.419 121.451)" fill="#3B3233"/>
<circle r="20.5" transform="matrix(-1 0 0 1 259.419 121.451)" fill="#3B3233"/>
<rect width="83" height="249" rx="41.5" transform="matrix(-1 0 0 1 620.266 207.498)" fill="#3FBB7D"/>
<rect x="151.919" y="262.74" width="83" height="249" rx="41.5" transform="rotate(163.165 151.919 262.74)" fill="#3FBB7D"/>
<path d="M456.561 582.723H373.561V702.245C373.561 725.165 392.141 743.745 415.061 743.745C437.98 743.745 456.561 725.165 456.561 702.245V582.723Z" fill="#3FBB7D"/>
<path d="M305.278 582.723H222.278V702.245C222.278 725.165 240.858 743.745 263.778 743.745C286.698 743.745 305.278 725.165 305.278 702.245V582.723Z" fill="#3FBB7D"/>
<path fill-rule="evenodd" clip-rule="evenodd" d="M155.919 204.722H522.919L522.919 403.931H450.18L447.547 376.254L430.94 376.254L428.307 403.931H388.74C387.194 396.305 379.085 390.428 370.374 393.775C363.027 396.598 354.82 392.646 352.446 385.141C348.422 372.418 330.417 372.418 326.392 385.141C324.018 392.646 315.812 396.598 308.464 393.775C299.753 390.428 291.645 396.305 290.099 403.931H254.998V367.849C260.743 362.493 264.335 354.859 264.335 346.385C264.335 335.693 258.615 326.337 250.069 321.21V347.66L234.998 358.067L219.927 347.66V321.21C211.381 326.337 205.661 335.693 205.661 346.385C205.661 354.859 209.253 362.493 214.998 367.849V403.931H155.919V204.722ZM155.919 465.571V542.722C155.919 559.291 169.351 572.722 185.919 572.722H492.919C509.488 572.722 522.919 559.291 522.919 542.722L522.919 465.571H374.627C373.084 468.157 372.379 471.272 372.842 474.502C374.737 487.712 358.515 495.524 349.368 485.807C343.974 480.075 334.865 480.075 329.47 485.807C320.324 495.524 304.101 487.712 305.996 474.502C306.459 471.272 305.754 468.157 304.211 465.571H155.919ZM327.757 465.571C331.378 466.959 335.31 467.719 339.419 467.719C343.529 467.719 347.461 466.959 351.082 465.571H327.757ZM348.913 403.931C345.909 403.018 342.721 402.527 339.419 402.527C336.117 402.527 332.929 403.018 329.926 403.931H348.913ZM205.661 507.328C205.661 498.131 209.894 489.922 216.517 484.543H253.479C260.102 489.922 264.335 498.131 264.335 507.328C264.335 518.021 258.615 527.377 250.069 532.504V506.054L234.998 495.647L219.927 506.054V532.504C211.381 527.377 205.661 518.021 205.661 507.328ZM382.048 331.998H405.751V383.198H382.048V331.998ZM414.713 341.261H463.021C479.589 341.261 493.021 354.693 493.021 371.261V389.973H480.392V385.28C480.392 376.995 473.676 370.28 465.392 370.28H414.713V341.261ZM455.127 484.543H423.353L421.638 513.211H456.846L455.127 484.543Z" fill="#3FBB7D"/>
<path fill-rule="evenodd" clip-rule="evenodd" d="M292.954 397.919H275.498V492.466H406.709V397.919H385.884C389.377 402.227 390.364 408.566 386.619 414.145C382.231 420.679 384.258 429.56 391.046 433.544C402.555 440.299 398.549 457.853 385.249 458.945C377.404 459.589 371.725 466.711 372.842 474.502C374.737 487.712 358.515 495.524 349.368 485.806C343.974 480.075 334.865 480.075 329.47 485.806C320.324 495.524 304.101 487.712 305.996 474.502C307.114 466.711 301.434 459.589 293.59 458.945C280.29 457.853 276.283 440.299 287.792 433.544C294.58 429.56 296.607 420.679 292.22 414.145C288.474 408.566 289.461 402.227 292.954 397.919ZM362.016 435.123C362.016 447.602 351.899 457.719 339.419 457.719C326.94 457.719 316.823 447.602 316.823 435.123C316.823 422.643 326.94 412.526 339.419 412.526C351.899 412.526 362.016 422.643 362.016 435.123ZM372.016 435.123C372.016 453.125 357.422 467.719 339.419 467.719C321.417 467.719 306.823 453.125 306.823 435.123C306.823 417.12 321.417 402.526 339.419 402.526C357.422 402.526 372.016 417.12 372.016 435.123ZM339.419 443.543C344.07 443.543 347.84 439.773 347.84 435.123C347.84 430.472 344.07 426.702 339.419 426.702C334.769 426.702 330.999 430.472 330.999 435.123C330.999 439.773 334.769 443.543 339.419 443.543ZM339.419 453.543C349.593 453.543 357.84 445.296 357.84 435.123C357.84 424.949 349.593 416.702 339.419 416.702C329.246 416.702 320.999 424.949 320.999 435.123C320.999 445.296 329.246 453.543 339.419 453.543Z" fill="#3FBB7D"/>
</svg>
