<svg width="126" height="116" viewBox="0 0 126 116" fill="none" xmlns="http://www.w3.org/2000/svg">
<circle cx="59.8477" cy="56.4194" r="35" stroke="#4F5B62" stroke-width="10"/>
<path d="M29.153 97.6135C28.4324 97.6135 27.8057 97.3471 27.273 96.8145C26.7404 96.2818 26.474 95.6551 26.474 94.9345V65.9825C26.474 65.2618 26.7404 64.6351 27.273 64.1025C27.8057 63.5698 28.4324 63.3035 29.153 63.3035H45.274C45.9947 63.3035 46.6214 63.5698 47.154 64.1025C47.6867 64.6351 47.953 65.2618 47.953 65.9825V67.0635C47.953 67.7841 47.6867 68.4108 47.154 68.9435C46.6214 69.4761 45.9947 69.7425 45.274 69.7425H34.887C34.605 69.7425 34.464 69.8678 34.464 70.1185V77.1215C34.464 77.4035 34.605 77.5445 34.887 77.5445H44.334C45.0547 77.5445 45.6814 77.8108 46.214 78.3435C46.7467 78.8448 47.013 79.4558 47.013 80.1765V80.9285C47.013 81.6491 46.7467 82.2758 46.214 82.8085C45.6814 83.3098 45.0547 83.5605 44.334 83.5605H34.887C34.605 83.5605 34.464 83.7015 34.464 83.9835V94.9345C34.464 95.6551 34.1977 96.2818 33.665 96.8145C33.1637 97.3471 32.5527 97.6135 31.832 97.6135H29.153ZM64.0024 86.4275C60.1798 86.4275 58.2684 87.6025 58.2684 89.9525C58.2684 90.7985 58.5191 91.4721 59.0204 91.9735C59.5218 92.4435 60.1954 92.6785 61.0414 92.6785C62.5454 92.6785 63.7674 92.2085 64.7074 91.2685C65.6474 90.2971 66.1174 89.0125 66.1174 87.4145V86.8505C66.1174 86.5685 65.9764 86.4275 65.6944 86.4275H64.0024ZM58.7384 98.0835C56.5764 98.0835 54.7904 97.3941 53.3804 96.0155C52.0018 94.6055 51.3124 92.7881 51.3124 90.5635C51.3124 84.8608 55.5424 82.0095 64.0024 82.0095H65.6944C65.9764 82.0095 66.1174 81.8841 66.1174 81.6335V81.3985C66.1174 80.2078 65.8041 79.3461 65.1774 78.8135C64.5821 78.2808 63.5638 78.0145 62.1224 78.0145C60.2111 78.0145 57.9238 78.3121 55.2604 78.9075C54.6024 79.0328 54.0071 78.8918 53.4744 78.4845C52.9731 78.0771 52.7224 77.5445 52.7224 76.8865V76.7925C52.7224 76.0091 52.9574 75.3041 53.4274 74.6775C53.9288 74.0195 54.5554 73.6278 55.3074 73.5025C58.0648 72.9698 60.4461 72.7035 62.4514 72.7035C66.5561 72.7035 69.4544 73.4398 71.1464 74.9125C72.8698 76.3851 73.7314 78.8291 73.7314 82.2445V94.9345C73.7314 95.6551 73.4651 96.2818 72.9324 96.8145C72.3998 97.3471 71.7731 97.6135 71.0524 97.6135H69.3134C68.5614 97.6135 67.9191 97.3628 67.3864 96.8615C66.8538 96.3288 66.5718 95.6865 66.5404 94.9345V94.4175C66.5404 94.3861 66.5248 94.3705 66.4934 94.3705C66.4308 94.3705 66.3994 94.3861 66.3994 94.4175C64.4254 96.8615 61.8718 98.0835 58.7384 98.0835ZM79.7864 79.4245C79.0657 79.4245 78.439 79.1738 77.9064 78.6725C77.3737 78.1398 77.1074 77.5131 77.1074 76.7925C77.1074 76.0718 77.3737 75.4451 77.9064 74.9125C78.439 74.3798 79.0657 74.1135 79.7864 74.1135H81.6664C81.917 74.1135 82.0424 73.9725 82.0424 73.6905V67.8625C82.0424 67.1418 82.3087 66.5151 82.8414 65.9825C83.374 65.4498 84.0007 65.1835 84.7214 65.1835H86.9774C87.698 65.1835 88.3247 65.4498 88.8574 65.9825C89.39 66.5151 89.6564 67.1418 89.6564 67.8625V73.6905C89.6564 73.9725 89.7974 74.1135 90.0794 74.1135H94.6854C95.406 74.1135 96.017 74.3798 96.5184 74.9125C97.051 75.4451 97.3174 76.0718 97.3174 76.7925C97.3174 77.5131 97.051 78.1398 96.5184 78.6725C96.017 79.1738 95.406 79.4245 94.6854 79.4245H90.0794C89.7974 79.4245 89.6564 79.5655 89.6564 79.8475V87.8845C89.6564 89.8585 89.8287 91.1118 90.1734 91.6445C90.5494 92.1771 91.364 92.4435 92.6174 92.4435C93.2754 92.4435 93.7924 92.4121 94.1684 92.3495C94.8577 92.2555 95.4687 92.4121 96.0014 92.8195C96.534 93.2268 96.8004 93.7595 96.8004 94.4175V94.7935C96.8004 95.5768 96.5497 96.2661 96.0484 96.8615C95.547 97.4568 94.9047 97.8015 94.1214 97.8955C93.15 98.0208 92.022 98.0835 90.7374 98.0835C87.5414 98.0835 85.2854 97.4098 83.9694 96.0625C82.6847 94.6838 82.0424 92.2241 82.0424 88.6835V79.8475C82.0424 79.5655 81.917 79.4245 81.6664 79.4245H79.7864Z" fill="#3FBB7D"/>
<path d="M3.948 52.7699C3.196 52.5819 2.585 52.1745 2.115 51.5479C1.67633 50.8899 1.457 50.1535 1.457 49.3389V47.6939C1.457 47.0672 1.70767 46.5815 2.209 46.2369C2.74167 45.8922 3.30567 45.8295 3.901 46.0489C6.063 46.7695 8.11533 47.1299 10.058 47.1299C11.9693 47.1299 13.3793 46.5502 14.288 45.3909C15.1967 44.2315 15.651 42.2575 15.651 39.4689V21.4679C15.651 20.7472 15.9017 20.1205 16.403 19.5879C16.9357 19.0552 17.5623 18.7889 18.283 18.7889H21.197C21.9177 18.7889 22.5443 19.0552 23.077 19.5879C23.6097 20.1205 23.876 20.7472 23.876 21.4679V40.5499C23.876 45.1872 22.8733 48.5242 20.868 50.5609C18.8627 52.5662 15.6353 53.5689 11.186 53.5689C8.648 53.5689 6.23533 53.3025 3.948 52.7699ZM44.2373 35.2389C43.4853 34.0795 42.3259 33.4999 40.7593 33.4999C39.1926 33.4999 38.0176 34.0795 37.2343 35.2389C36.4823 36.3982 36.1063 38.2782 36.1063 40.8789C36.1063 43.4795 36.4823 45.3595 37.2343 46.5189C38.0176 47.6782 39.1926 48.2579 40.7593 48.2579C42.3259 48.2579 43.4853 47.6782 44.2373 46.5189C45.0206 45.3595 45.4123 43.4795 45.4123 40.8789C45.4123 38.2782 45.0206 36.3982 44.2373 35.2389ZM49.8303 50.2319C47.6683 52.4565 44.6446 53.5689 40.7593 53.5689C36.8739 53.5689 33.8503 52.4565 31.6883 50.2319C29.5263 48.0072 28.4453 44.8895 28.4453 40.8789C28.4453 36.8682 29.5263 33.7505 31.6883 31.5259C33.8503 29.3012 36.8739 28.1889 40.7593 28.1889C44.6446 28.1889 47.6683 29.3012 49.8303 31.5259C51.9923 33.7505 53.0733 36.8682 53.0733 40.8789C53.0733 44.8895 51.9923 48.0072 49.8303 50.2319ZM60.2613 53.0989C59.5407 53.0989 58.914 52.8325 58.3813 52.2999C57.88 51.7672 57.6293 51.1405 57.6293 50.4199V31.3379C57.6293 30.6172 57.88 29.9905 58.3813 29.4579C58.914 28.9252 59.5407 28.6589 60.2613 28.6589H62.5643C63.285 28.6589 63.896 28.9252 64.3973 29.4579C64.93 29.9905 65.1963 30.6172 65.1963 31.3379V33.3119C65.1963 33.3432 65.212 33.3589 65.2433 33.3589C65.306 33.3589 65.3373 33.3432 65.3373 33.3119C67.28 30.7112 69.9903 29.1915 73.4683 28.7529C74.189 28.6589 74.8 28.8782 75.3013 29.4109C75.834 29.9435 76.1003 30.5859 76.1003 31.3379V31.7139C76.1003 32.4345 75.834 33.0612 75.3013 33.5939C74.8 34.1265 74.1733 34.4242 73.4213 34.4869C70.8833 34.7689 68.9093 35.6462 67.4993 37.1189C66.1207 38.5602 65.4313 40.4402 65.4313 42.7589V50.4199C65.4313 51.1405 65.165 51.7672 64.6323 52.2999C64.131 52.8325 63.52 53.0989 62.7993 53.0989H60.2613ZM85.2128 53.0989C84.4922 53.0989 83.8655 52.8325 83.3328 52.2999C82.8002 51.7672 82.5338 51.1405 82.5338 50.4199V31.3379C82.5338 30.6172 82.8002 29.9905 83.3328 29.4579C83.8655 28.9252 84.4922 28.6589 85.2128 28.6589H87.8448C88.5655 28.6589 89.1922 28.9252 89.7248 29.4579C90.2575 29.9905 90.5238 30.6172 90.5238 31.3379V50.4199C90.5238 51.1405 90.2575 51.7672 89.7248 52.2999C89.1922 52.8325 88.5655 53.0989 87.8448 53.0989H85.2128ZM85.2128 23.9589C84.4922 23.9589 83.8655 23.6925 83.3328 23.1599C82.8002 22.6272 82.5338 22.0005 82.5338 21.2799V20.5279C82.5338 19.8072 82.8002 19.1805 83.3328 18.6479C83.8655 18.1152 84.4922 17.8489 85.2128 17.8489H87.8448C88.5655 17.8489 89.1922 18.1152 89.7248 18.6479C90.2575 19.1805 90.5238 19.8072 90.5238 20.5279V21.2799C90.5238 22.0005 90.2575 22.6272 89.7248 23.1599C89.1922 23.6925 88.5655 23.9589 87.8448 23.9589H85.2128ZM100.749 53.0989C100.029 53.0989 99.4019 52.8325 98.8693 52.2999C98.3679 51.7672 98.1173 51.1405 98.1173 50.4199V20.5279C98.1173 19.8072 98.3679 19.1805 98.8693 18.6479C99.4019 18.1152 100.029 17.8489 100.749 17.8489H103.052C103.773 17.8489 104.384 18.1152 104.885 18.6479C105.418 19.1805 105.684 19.8072 105.684 20.5279V37.8709C105.684 37.9022 105.7 37.9179 105.731 37.9179L105.825 37.8709L111.7 30.7269C112.828 29.3482 114.27 28.6589 116.024 28.6589H119.408C119.91 28.6589 120.27 28.8939 120.489 29.3639C120.74 29.8339 120.693 30.2725 120.348 30.6799L112.311 40.1269C112.155 40.3149 112.155 40.5185 112.311 40.7379L120.442 51.0309C120.756 51.4695 120.787 51.9239 120.536 52.3939C120.317 52.8639 119.941 53.0989 119.408 53.0989H116.024C114.27 53.0989 112.844 52.3939 111.747 50.9839L105.825 43.2759C105.794 43.2445 105.763 43.2289 105.731 43.2289C105.7 43.2289 105.684 43.2445 105.684 43.2759V50.4199C105.684 51.1405 105.418 51.7672 104.885 52.2999C104.384 52.8325 103.773 53.0989 103.052 53.0989H100.749Z" fill="#3FBB7D"/>
</svg>
