<svg width="236" height="219" viewBox="0 0 236 219" fill="none" xmlns="http://www.w3.org/2000/svg">
<circle cx="117.63" cy="109.581" r="72.7348" stroke="white" stroke-width="15"/>
<path d="M49.0996 185.16C47.7196 185.16 46.5196 184.65 45.4996 183.63C44.4796 182.61 43.9696 181.41 43.9696 180.03V124.59C43.9696 123.21 44.4796 122.01 45.4996 120.99C46.5196 119.97 47.7196 119.46 49.0996 119.46H79.9696C81.3496 119.46 82.5496 119.97 83.5696 120.99C84.5896 122.01 85.0996 123.21 85.0996 124.59V126.66C85.0996 128.04 84.5896 129.24 83.5696 130.26C82.5496 131.28 81.3496 131.79 79.9696 131.79H60.0796C59.5396 131.79 59.2696 132.03 59.2696 132.51V145.92C59.2696 146.46 59.5396 146.73 60.0796 146.73H78.1696C79.5496 146.73 80.7496 147.24 81.7696 148.26C82.7896 149.22 83.2996 150.39 83.2996 151.77V153.21C83.2996 154.59 82.7896 155.79 81.7696 156.81C80.7496 157.77 79.5496 158.25 78.1696 158.25H60.0796C59.5396 158.25 59.2696 158.52 59.2696 159.06V180.03C59.2696 181.41 58.7596 182.61 57.7396 183.63C56.7796 184.65 55.6096 185.16 54.2296 185.16H49.0996ZM115.833 163.74C108.513 163.74 104.853 165.99 104.853 170.49C104.853 172.11 105.333 173.4 106.293 174.36C107.253 175.26 108.543 175.71 110.163 175.71C113.043 175.71 115.383 174.81 117.183 173.01C118.983 171.15 119.883 168.69 119.883 165.63V164.55C119.883 164.01 119.613 163.74 119.073 163.74H115.833ZM105.753 186.06C101.613 186.06 98.1925 184.74 95.4925 182.1C92.8525 179.4 91.5325 175.92 91.5325 171.66C91.5325 160.74 99.6325 155.28 115.833 155.28H119.073C119.613 155.28 119.883 155.04 119.883 154.56V154.11C119.883 151.83 119.283 150.18 118.083 149.16C116.943 148.14 114.993 147.63 112.233 147.63C108.573 147.63 104.193 148.2 99.0925 149.34C97.8325 149.58 96.6925 149.31 95.6725 148.53C94.7125 147.75 94.2325 146.73 94.2325 145.47V145.29C94.2325 143.79 94.6825 142.44 95.5825 141.24C96.5425 139.98 97.7425 139.23 99.1825 138.99C104.463 137.97 109.023 137.46 112.863 137.46C120.723 137.46 126.273 138.87 129.513 141.69C132.813 144.51 134.463 149.19 134.463 155.73V180.03C134.463 181.41 133.953 182.61 132.933 183.63C131.913 184.65 130.713 185.16 129.333 185.16H126.003C124.563 185.16 123.333 184.68 122.313 183.72C121.293 182.7 120.753 181.47 120.693 180.03V179.04C120.693 178.98 120.663 178.95 120.603 178.95C120.483 178.95 120.423 178.98 120.423 179.04C116.643 183.72 111.753 186.06 105.753 186.06ZM146.057 150.33C144.677 150.33 143.477 149.85 142.457 148.89C141.437 147.87 140.927 146.67 140.927 145.29C140.927 143.91 141.437 142.71 142.457 141.69C143.477 140.67 144.677 140.16 146.057 140.16H149.657C150.137 140.16 150.377 139.89 150.377 139.35V128.19C150.377 126.81 150.887 125.61 151.907 124.59C152.927 123.57 154.127 123.06 155.507 123.06H159.827C161.207 123.06 162.407 123.57 163.427 124.59C164.447 125.61 164.957 126.81 164.957 128.19V139.35C164.957 139.89 165.227 140.16 165.767 140.16H174.587C175.967 140.16 177.137 140.67 178.097 141.69C179.117 142.71 179.627 143.91 179.627 145.29C179.627 146.67 179.117 147.87 178.097 148.89C177.137 149.85 175.967 150.33 174.587 150.33H165.767C165.227 150.33 164.957 150.6 164.957 151.14V166.53C164.957 170.31 165.287 172.71 165.947 173.73C166.667 174.75 168.227 175.26 170.627 175.26C171.887 175.26 172.877 175.2 173.597 175.08C174.917 174.9 176.087 175.2 177.107 175.98C178.127 176.76 178.637 177.78 178.637 179.04V179.76C178.637 181.26 178.157 182.58 177.197 183.72C176.237 184.86 175.007 185.52 173.507 185.7C171.647 185.94 169.487 186.06 167.027 186.06C160.907 186.06 156.587 184.77 154.067 182.19C151.607 179.55 150.377 174.84 150.377 168.06V151.14C150.377 150.6 150.137 150.33 149.657 150.33H146.057Z" fill="black"/>
<path d="M7.68964 100.951C6.24964 100.591 5.07964 99.8111 4.17964 98.6111C3.33964 97.3511 2.91964 95.9411 2.91964 94.3811V91.2311C2.91964 90.0311 3.39964 89.1011 4.35964 88.4411C5.37964 87.7811 6.45964 87.6611 7.59964 88.0811C11.7396 89.4611 15.6696 90.1511 19.3896 90.1511C23.0496 90.1511 25.7496 89.0411 27.4896 86.8211C29.2296 84.6011 30.0996 80.8211 30.0996 75.4811V41.0111C30.0996 39.6311 30.5796 38.4311 31.5396 37.4111C32.5596 36.3911 33.7596 35.8811 35.1396 35.8811H40.7196C42.0996 35.8811 43.2996 36.3911 44.3196 37.4111C45.3396 38.4311 45.8496 39.6311 45.8496 41.0111V77.5511C45.8496 86.4311 43.9296 92.8211 40.0896 96.7211C36.2496 100.561 30.0696 102.481 21.5496 102.481C16.6896 102.481 12.0696 101.971 7.68964 100.951ZM84.8393 67.3811C83.3993 65.1611 81.1793 64.0511 78.1793 64.0511C75.1793 64.0511 72.9293 65.1611 71.4293 67.3811C69.9893 69.6011 69.2693 73.2011 69.2693 78.1811C69.2693 83.1611 69.9893 86.7611 71.4293 88.9811C72.9293 91.2011 75.1793 92.3111 78.1793 92.3111C81.1793 92.3111 83.3993 91.2011 84.8393 88.9811C86.3393 86.7611 87.0893 83.1611 87.0893 78.1811C87.0893 73.2011 86.3393 69.6011 84.8393 67.3811ZM95.5493 96.0911C91.4093 100.351 85.6193 102.481 78.1793 102.481C70.7393 102.481 64.9493 100.351 60.8093 96.0911C56.6693 91.8311 54.5993 85.8611 54.5993 78.1811C54.5993 70.5011 56.6693 64.5311 60.8093 60.2711C64.9493 56.0111 70.7393 53.8811 78.1793 53.8811C85.6193 53.8811 91.4093 56.0111 95.5493 60.2711C99.6893 64.5311 101.759 70.5011 101.759 78.1811C101.759 85.8611 99.6893 91.8311 95.5493 96.0911ZM115.524 101.581C114.144 101.581 112.944 101.071 111.924 100.051C110.964 99.0311 110.484 97.8311 110.484 96.4511V59.9111C110.484 58.5311 110.964 57.3311 111.924 56.3111C112.944 55.2911 114.144 54.7811 115.524 54.7811H119.934C121.314 54.7811 122.484 55.2911 123.444 56.3111C124.464 57.3311 124.974 58.5311 124.974 59.9111V63.6911C124.974 63.7511 125.004 63.7811 125.064 63.7811C125.184 63.7811 125.244 63.7511 125.244 63.6911C128.964 58.7111 134.154 55.8011 140.814 54.9611C142.194 54.7811 143.364 55.2011 144.324 56.2211C145.344 57.2411 145.854 58.4711 145.854 59.9111V60.6311C145.854 62.0111 145.344 63.2111 144.324 64.2311C143.364 65.2511 142.164 65.8211 140.724 65.9411C135.864 66.4811 132.084 68.1611 129.384 70.9811C126.744 73.7411 125.424 77.3411 125.424 81.7811V96.4511C125.424 97.8311 124.914 99.0311 123.894 100.051C122.934 101.071 121.764 101.581 120.384 101.581H115.524ZM163.303 101.581C161.923 101.581 160.723 101.071 159.703 100.051C158.683 99.0311 158.173 97.8311 158.173 96.4511V59.9111C158.173 58.5311 158.683 57.3311 159.703 56.3111C160.723 55.2911 161.923 54.7811 163.303 54.7811H168.343C169.723 54.7811 170.923 55.2911 171.943 56.3111C172.963 57.3311 173.473 58.5311 173.473 59.9111V96.4511C173.473 97.8311 172.963 99.0311 171.943 100.051C170.923 101.071 169.723 101.581 168.343 101.581H163.303ZM163.303 45.7811C161.923 45.7811 160.723 45.2711 159.703 44.2511C158.683 43.2311 158.173 42.0311 158.173 40.6511V39.2111C158.173 37.8311 158.683 36.6311 159.703 35.6111C160.723 34.5911 161.923 34.0811 163.303 34.0811H168.343C169.723 34.0811 170.923 34.5911 171.943 35.6111C172.963 36.6311 173.473 37.8311 173.473 39.2111V40.6511C173.473 42.0311 172.963 43.2311 171.943 44.2511C170.923 45.2711 169.723 45.7811 168.343 45.7811H163.303ZM193.054 101.581C191.674 101.581 190.474 101.071 189.454 100.051C188.494 99.0311 188.014 97.8311 188.014 96.4511V39.2111C188.014 37.8311 188.494 36.6311 189.454 35.6111C190.474 34.5911 191.674 34.0811 193.054 34.0811H197.464C198.844 34.0811 200.014 34.5911 200.974 35.6111C201.994 36.6311 202.504 37.8311 202.504 39.2111V72.4211C202.504 72.4811 202.534 72.5111 202.594 72.5111L202.774 72.4211L214.024 58.7411C216.184 56.1011 218.944 54.7811 222.304 54.7811H228.784C229.744 54.7811 230.434 55.2311 230.854 56.1311C231.334 57.0311 231.244 57.8711 230.584 58.6511L215.194 76.7411C214.894 77.1011 214.894 77.4911 215.194 77.9111L230.764 97.6211C231.364 98.4611 231.424 99.3311 230.944 100.231C230.524 101.131 229.804 101.581 228.784 101.581H222.304C218.944 101.581 216.214 100.231 214.114 97.5311L202.774 82.7711C202.714 82.7111 202.654 82.6811 202.594 82.6811C202.534 82.6811 202.504 82.7111 202.504 82.7711V96.4511C202.504 97.8311 201.994 99.0311 200.974 100.051C200.014 101.071 198.844 101.581 197.464 101.581H193.054Z" fill="black"/>
</svg>
