<svg width="126" height="163" viewBox="0 0 126 163" fill="none" xmlns="http://www.w3.org/2000/svg">
<rect x="18" y="38" width="90" height="95" rx="8" fill="#C4C4C4"/>
<path d="M66.0154 160.72C64.2314 162.069 61.7686 162.069 59.9846 160.72L20.3289 130.738C16.5039 127.846 18.5491 121.75 23.3444 121.75L102.656 121.75C107.451 121.75 109.496 127.846 105.671 130.738L66.0154 160.72Z" fill="#C4C4C4"/>
<path d="M18 0V44H50L18 0Z" fill="#C4C4C4"/>
<path d="M108 0V44H76L108 0Z" fill="#C4C4C4"/>
<ellipse cx="62.5" cy="47" rx="26.5" ry="15" fill="#C4C4C4"/>
<path d="M18 57.5C18 57.5 45.244 64 63 64C80.756 64 108 57.5 108 57.5" stroke="white"/>
<path d="M18 71.5C18 71.5 45.244 78 63 78C80.756 78 108 71.5 108 71.5" stroke="white"/>
<path d="M61.5 104C61.5 104 60.3288 113.967 55.5 116C48.8634 118.794 42 111.5 42 111.5" stroke="white" stroke-linecap="round" stroke-linejoin="round"/>
<path d="M62.5 104C62.5 104 63.6712 114.253 68.5 116.344C75.1366 119.218 82 111.715 82 111.715" stroke="white" stroke-linecap="round" stroke-linejoin="round"/>
<path d="M65.1696 103.883C63.5684 105.963 60.4316 105.963 58.8304 103.883L51.369 94.19C49.3442 91.5597 51.2193 87.75 54.5387 87.75L69.4613 87.75C72.7807 87.75 74.6557 91.5597 72.631 94.19L65.1696 103.883Z" fill="white"/>
</svg>
