<svg width="79" height="88" viewBox="0 0 79 88" fill="none" xmlns="http://www.w3.org/2000/svg">
<path d="M25.7734 87.084C20.5879 85.6191 16.6768 83.2021 14.04 79.833C11.4326 76.4932 10.1289 72.0693 10.1289 66.5615V57.8164C10.1289 50.6973 7.02344 47.1377 0.8125 47.1377V40.7656C7.02344 40.7656 10.1289 37.2207 10.1289 30.1309V20.9902C10.1875 15.6289 11.4912 11.3076 14.04 8.02637C16.6182 4.71582 20.5293 2.31348 25.7734 0.819336L27.4434 5.87305C21.3203 7.83594 18.2588 12.9482 18.2588 21.21V30.0869C18.2588 36.7373 15.8125 41.3662 10.9199 43.9736C15.8125 46.6104 18.2588 51.2832 18.2588 57.9922V67.0449C18.3467 75.1016 21.4082 80.0967 27.4434 82.0303L25.7734 87.084ZM51.6572 82.0303C57.6045 80.126 60.6807 75.2773 60.8857 67.4844V57.8164C60.8857 51.0488 63.5371 46.4346 68.8398 43.9736C63.5371 41.5713 60.8857 36.957 60.8857 30.1309V21.21C60.8857 12.9482 57.8242 7.83594 51.7012 5.87305L53.3711 0.819336C58.5566 2.28418 62.4531 4.67188 65.0605 7.98242C67.668 11.2637 68.9863 15.6143 69.0156 21.0342V30.2627C69.0156 37.2646 72.1211 40.7656 78.332 40.7656V47.1377C72.1211 47.1377 69.0156 50.6973 69.0156 57.8164V66.6934C69.0156 72.2012 67.6826 76.6104 65.0166 79.9209C62.3799 83.2314 58.498 85.6191 53.3711 87.084L51.6572 82.0303Z" fill="white"/>
</svg>
